<mxfile host="app.diagrams.net" modified="2022-11-08T18:59:08.506Z" agent="5.0 (Windows NT 10.0; Win64; x64) AppleWebKit/537.36 (KHTML, like Gecko) Chrome/106.0.0.0 Safari/537.36" etag="_nq0U6FB80Sd--3OgQIt" version="20.5.3" type="github">
  <diagram id="VlyM_qsbqjkip8Nx2KwZ" name="Page-1">
    <mxGraphModel dx="3122" dy="762" grid="1" gridSize="10" guides="1" tooltips="1" connect="1" arrows="1" fold="1" page="1" pageScale="1" pageWidth="850" pageHeight="1100" math="0" shadow="0">
      <root>
        <mxCell id="0" />
        <mxCell id="1" parent="0" />
        <mxCell id="n2S20jCCv5cZMQg2Qm6D-1" value="RP Life Cycle" style="swimlane;childLayout=stackLayout;resizeParent=1;resizeParentMax=0;startSize=20;horizontal=0;horizontalStack=1;" vertex="1" parent="1">
          <mxGeometry x="50" y="40" width="700" height="730" as="geometry" />
        </mxCell>
        <mxCell id="n2S20jCCv5cZMQg2Qm6D-2" value="Review Team" style="swimlane;startSize=20;" vertex="1" parent="n2S20jCCv5cZMQg2Qm6D-1">
          <mxGeometry x="20" width="150" height="730" as="geometry" />
        </mxCell>
        <mxCell id="n2S20jCCv5cZMQg2Qm6D-17" value="Review Chair Proposed material and review TMC requirements for presentation, documentation, and review.&amp;nbsp;" style="rounded=0;whiteSpace=wrap;html=1;" vertex="1" parent="n2S20jCCv5cZMQg2Qm6D-2">
          <mxGeometry y="110" width="150" height="100" as="geometry" />
        </mxCell>
        <mxCell id="n2S20jCCv5cZMQg2Qm6D-25" value="Review Professionalism and attendance of sub committees." style="rounded=0;whiteSpace=wrap;html=1;" vertex="1" parent="n2S20jCCv5cZMQg2Qm6D-2">
          <mxGeometry y="210" width="150" height="60" as="geometry" />
        </mxCell>
        <mxCell id="n2S20jCCv5cZMQg2Qm6D-26" value="1. Study Group Chair&lt;br&gt;2. First Vice Chair(s)&lt;br&gt;3. Secretary&lt;br&gt;4. Optional Guest (Tech Advisor, RP Specialist)" style="rounded=0;whiteSpace=wrap;html=1;" vertex="1" parent="n2S20jCCv5cZMQg2Qm6D-2">
          <mxGeometry y="20" width="150" height="90" as="geometry" />
        </mxCell>
        <mxCell id="n2S20jCCv5cZMQg2Qm6D-28" value="Assess task placement, viability, and applicable&amp;nbsp;" style="rounded=0;whiteSpace=wrap;html=1;" vertex="1" parent="n2S20jCCv5cZMQg2Qm6D-2">
          <mxGeometry x="25" y="300" width="100" height="60" as="geometry" />
        </mxCell>
        <mxCell id="n2S20jCCv5cZMQg2Qm6D-3" value="Task Force Chair (&gt;=2)" style="swimlane;startSize=20;" vertex="1" parent="n2S20jCCv5cZMQg2Qm6D-1">
          <mxGeometry x="170" width="120" height="730" as="geometry" />
        </mxCell>
        <mxCell id="n2S20jCCv5cZMQg2Qm6D-13" value="Prefer a chair only chair one task force at a time at the discretion of review team" style="rounded=0;whiteSpace=wrap;html=1;" vertex="1" parent="n2S20jCCv5cZMQg2Qm6D-3">
          <mxGeometry y="20" width="120" height="110" as="geometry" />
        </mxCell>
        <mxCell id="n2S20jCCv5cZMQg2Qm6D-20" value="If someone is found to filibuster or break professionalism in a meeting, we can ask them to leave.&amp;nbsp;&amp;nbsp;" style="rounded=0;whiteSpace=wrap;html=1;" vertex="1" parent="n2S20jCCv5cZMQg2Qm6D-3">
          <mxGeometry y="130" width="120" height="100" as="geometry" />
        </mxCell>
        <mxCell id="n2S20jCCv5cZMQg2Qm6D-31" value="Write draft document Task force meetings start to review draft" style="rounded=0;whiteSpace=wrap;html=1;" vertex="1" parent="n2S20jCCv5cZMQg2Qm6D-3">
          <mxGeometry x="10" y="360" width="100" height="90" as="geometry" />
        </mxCell>
        <mxCell id="n2S20jCCv5cZMQg2Qm6D-33" value="Post meeting notes to TMC connects for review" style="rounded=0;whiteSpace=wrap;html=1;" vertex="1" parent="n2S20jCCv5cZMQg2Qm6D-3">
          <mxGeometry x="10" y="470" width="100" height="60" as="geometry" />
        </mxCell>
        <mxCell id="n2S20jCCv5cZMQg2Qm6D-4" value="Tech Advisors" style="swimlane;startSize=20;" vertex="1" parent="n2S20jCCv5cZMQg2Qm6D-1">
          <mxGeometry x="290" width="120" height="730" as="geometry" />
        </mxCell>
        <mxCell id="n2S20jCCv5cZMQg2Qm6D-12" value="Someone, maybe a carrier, nominated by review team, may advise RP subcommittee meetings, will review written RP prior to submission to Carrier Leadership.&amp;nbsp; Cannot be a Chair in S.12. May work in multiple sub-committees" style="rounded=0;whiteSpace=wrap;html=1;" vertex="1" parent="n2S20jCCv5cZMQg2Qm6D-4">
          <mxGeometry y="20" width="120" height="170" as="geometry" />
        </mxCell>
        <mxCell id="n2S20jCCv5cZMQg2Qm6D-34" value="A tech advisor is assigned by review team" style="rounded=0;whiteSpace=wrap;html=1;" vertex="1" parent="n2S20jCCv5cZMQg2Qm6D-4">
          <mxGeometry x="10" y="370" width="100" height="60" as="geometry" />
        </mxCell>
        <mxCell id="n2S20jCCv5cZMQg2Qm6D-41" value="Review document for viability, approve approach technically" style="rounded=0;whiteSpace=wrap;html=1;" vertex="1" parent="n2S20jCCv5cZMQg2Qm6D-4">
          <mxGeometry x="10" y="560" width="100" height="60" as="geometry" />
        </mxCell>
        <mxCell id="n2S20jCCv5cZMQg2Qm6D-5" value="RP Specialist" style="swimlane;startSize=20;" vertex="1" parent="n2S20jCCv5cZMQg2Qm6D-1">
          <mxGeometry x="410" width="120" height="730" as="geometry" />
        </mxCell>
        <mxCell id="n2S20jCCv5cZMQg2Qm6D-11" value="Someone who topic expert on a specific RP, nominated by Review Team, cannot be a Chair in S.12" style="rounded=0;whiteSpace=wrap;html=1;" vertex="1" parent="n2S20jCCv5cZMQg2Qm6D-5">
          <mxGeometry y="20" width="120" height="90" as="geometry" />
        </mxCell>
        <mxCell id="n2S20jCCv5cZMQg2Qm6D-37" value="if applicable, a specialist will be assigned by review team" style="rounded=0;whiteSpace=wrap;html=1;" vertex="1" parent="n2S20jCCv5cZMQg2Qm6D-5">
          <mxGeometry x="10" y="420" width="100" height="60" as="geometry" />
        </mxCell>
        <mxCell id="n2S20jCCv5cZMQg2Qm6D-39" value="" style="endArrow=none;dashed=1;html=1;dashPattern=1 3;strokeWidth=2;rounded=0;entryX=0.5;entryY=0;entryDx=0;entryDy=0;" edge="1" parent="n2S20jCCv5cZMQg2Qm6D-5" target="n2S20jCCv5cZMQg2Qm6D-37">
          <mxGeometry width="50" height="50" relative="1" as="geometry">
            <mxPoint x="-10" y="390" as="sourcePoint" />
            <mxPoint x="40" y="340" as="targetPoint" />
            <Array as="points">
              <mxPoint x="60" y="390" />
            </Array>
          </mxGeometry>
        </mxCell>
        <mxCell id="n2S20jCCv5cZMQg2Qm6D-7" value="Public Forum" style="swimlane;startSize=20;" vertex="1" parent="n2S20jCCv5cZMQg2Qm6D-1">
          <mxGeometry x="530" width="170" height="730" as="geometry" />
        </mxCell>
        <mxCell id="n2S20jCCv5cZMQg2Qm6D-8" value="An idea for an RP is proposed in business session" style="ellipse;whiteSpace=wrap;html=1;" vertex="1" parent="n2S20jCCv5cZMQg2Qm6D-7">
          <mxGeometry x="10" y="220" width="150" height="70" as="geometry" />
        </mxCell>
        <mxCell id="n2S20jCCv5cZMQg2Qm6D-9" value="An RP is balloted, 90 day apeal" style="ellipse;whiteSpace=wrap;html=1;" vertex="1" parent="n2S20jCCv5cZMQg2Qm6D-7">
          <mxGeometry x="25" y="650" width="120" height="60" as="geometry" />
        </mxCell>
        <mxCell id="n2S20jCCv5cZMQg2Qm6D-10" value="TMC Fall/Spring Meeting" style="rounded=0;whiteSpace=wrap;html=1;" vertex="1" parent="n2S20jCCv5cZMQg2Qm6D-7">
          <mxGeometry y="20" width="170" height="60" as="geometry" />
        </mxCell>
        <mxCell id="n2S20jCCv5cZMQg2Qm6D-15" value="All documentation for review must be submitted to review team 1 month prior to presentation" style="rounded=0;whiteSpace=wrap;html=1;" vertex="1" parent="n2S20jCCv5cZMQg2Qm6D-7">
          <mxGeometry y="80" width="170" height="60" as="geometry" />
        </mxCell>
        <mxCell id="n2S20jCCv5cZMQg2Qm6D-16" value="All presented material must be posted to TMC connect within 1 month of the conference without review team consent" style="rounded=0;whiteSpace=wrap;html=1;" vertex="1" parent="n2S20jCCv5cZMQg2Qm6D-7">
          <mxGeometry y="140" width="170" height="60" as="geometry" />
        </mxCell>
        <mxCell id="n2S20jCCv5cZMQg2Qm6D-27" value="Assigned a chair" style="rounded=0;whiteSpace=wrap;html=1;" vertex="1" parent="n2S20jCCv5cZMQg2Qm6D-7">
          <mxGeometry x="35" y="310" width="100" height="40" as="geometry" />
        </mxCell>
        <mxCell id="n2S20jCCv5cZMQg2Qm6D-29" value="" style="endArrow=classic;html=1;rounded=0;exitX=0.5;exitY=1;exitDx=0;exitDy=0;entryX=0.5;entryY=0;entryDx=0;entryDy=0;" edge="1" parent="n2S20jCCv5cZMQg2Qm6D-7" source="n2S20jCCv5cZMQg2Qm6D-8" target="n2S20jCCv5cZMQg2Qm6D-27">
          <mxGeometry width="50" height="50" relative="1" as="geometry">
            <mxPoint x="-270" y="300" as="sourcePoint" />
            <mxPoint x="-220" y="250" as="targetPoint" />
          </mxGeometry>
        </mxCell>
        <mxCell id="n2S20jCCv5cZMQg2Qm6D-30" value="" style="endArrow=classic;html=1;rounded=0;exitX=0;exitY=0.5;exitDx=0;exitDy=0;entryX=1;entryY=0.5;entryDx=0;entryDy=0;" edge="1" parent="n2S20jCCv5cZMQg2Qm6D-1" source="n2S20jCCv5cZMQg2Qm6D-27" target="n2S20jCCv5cZMQg2Qm6D-28">
          <mxGeometry width="50" height="50" relative="1" as="geometry">
            <mxPoint x="260" y="300" as="sourcePoint" />
            <mxPoint x="310" y="250" as="targetPoint" />
          </mxGeometry>
        </mxCell>
        <mxCell id="n2S20jCCv5cZMQg2Qm6D-32" value="" style="endArrow=classic;html=1;rounded=0;exitX=0.5;exitY=1;exitDx=0;exitDy=0;entryX=0;entryY=0.5;entryDx=0;entryDy=0;" edge="1" parent="n2S20jCCv5cZMQg2Qm6D-1" source="n2S20jCCv5cZMQg2Qm6D-28" target="n2S20jCCv5cZMQg2Qm6D-31">
          <mxGeometry width="50" height="50" relative="1" as="geometry">
            <mxPoint x="260" y="310" as="sourcePoint" />
            <mxPoint x="310" y="260" as="targetPoint" />
            <Array as="points">
              <mxPoint x="95" y="405" />
            </Array>
          </mxGeometry>
        </mxCell>
        <mxCell id="n2S20jCCv5cZMQg2Qm6D-35" value="" style="endArrow=classic;html=1;rounded=0;exitX=1;exitY=0.5;exitDx=0;exitDy=0;" edge="1" parent="n2S20jCCv5cZMQg2Qm6D-1" source="n2S20jCCv5cZMQg2Qm6D-31" target="n2S20jCCv5cZMQg2Qm6D-34">
          <mxGeometry width="50" height="50" relative="1" as="geometry">
            <mxPoint x="260" y="330" as="sourcePoint" />
            <mxPoint x="310" y="280" as="targetPoint" />
          </mxGeometry>
        </mxCell>
        <mxCell id="n2S20jCCv5cZMQg2Qm6D-40" value="" style="endArrow=none;dashed=1;html=1;dashPattern=1 3;strokeWidth=2;rounded=0;entryX=0.5;entryY=1;entryDx=0;entryDy=0;exitX=1;exitY=0.5;exitDx=0;exitDy=0;" edge="1" parent="n2S20jCCv5cZMQg2Qm6D-1" source="n2S20jCCv5cZMQg2Qm6D-33" target="n2S20jCCv5cZMQg2Qm6D-37">
          <mxGeometry width="50" height="50" relative="1" as="geometry">
            <mxPoint x="470" y="520" as="sourcePoint" />
            <mxPoint x="500" y="480" as="targetPoint" />
            <Array as="points">
              <mxPoint x="470" y="500" />
            </Array>
          </mxGeometry>
        </mxCell>
        <mxCell id="n2S20jCCv5cZMQg2Qm6D-6" value="" style="ellipse;whiteSpace=wrap;html=1;" vertex="1" parent="1">
          <mxGeometry x="-870" y="380" width="120" height="80" as="geometry" />
        </mxCell>
      </root>
    </mxGraphModel>
  </diagram>
</mxfile>
